<svg xmlns="http://www.w3.org/2000/svg" viewBox="0 0 128 128" role="img" aria-label="Hikaru Sub">
  <rect width="128" height="128" rx="28" fill="#0b1220"/>
  <defs>
    <linearGradient id="hGrad" x1="36" y1="28" x2="92" y2="84" gradientUnits="userSpaceOnUse">
      <stop stop-color="#38bdf8"/>
      <stop offset="1" stop-color="#6366f1"/>
    </linearGradient>
  </defs>
  <!-- Geometric H: left stem, crossbar, right stem -->
  <path fill="url(#hGrad)" d="
    M34 26h18c2.2 0 4 1.8 4 4v22h16V30c0-2.2 1.8-4 4-4h18c2.2 0 4 1.8 4 4v56c0 2.2-1.8 4-4 4H76c-2.2 0-4-1.8-4-4V68H56v18c0 2.2-1.8 4-4 4H34c-2.2 0-4-1.8-4-4V30c0-2.2 1.8-4 4-4z
  "/>
  <!-- Caption bar -->
  <rect x="32" y="94" width="64" height="12" rx="3" fill="#e2e8f0"/>
  <rect x="40" y="98" width="30" height="4" rx="2" fill="#0b1220"/>
</svg>
